<svg xmlns="http://www.w3.org/2000/svg" width="17" height="53.031" viewBox="0 0 17 53.031">
  <defs>
    <style>
      .cls-1 {
        fill: #ebebeb;
        fill-rule: evenodd;
      }
    </style>
  </defs>
  <path class="cls-1" d="M25,883h3a7,7,0,0,1,7,7v11a7,7,0,0,1-7,7H25a7,7,0,0,1-7-7V890A7,7,0,0,1,25,883Zm1.5,5a2.5,2.5,0,0,1,2.5,2.5v3a2.5,2.5,0,0,1-5,0v-3A2.5,2.5,0,0,1,26.5,888Zm2.124,44.051a0.443,0.443,0,0,1-.4.475H23.4a0.481,0.481,0,0,1,0-.949h4.82A0.442,0.442,0,0,1,28.623,932.05Zm-2.337,3.8a0.37,0.37,0,0,1-.617-0.021l-2.539-3.291a0.693,0.693,0,0,1-.018-0.8,0.37,0.37,0,0,1,.617.022l2.539,3.29A0.693,0.693,0,0,1,26.286,935.846Zm-0.579-.008a0.693,0.693,0,0,1,.018-0.8l2.539-3.291a0.37,0.37,0,0,1,.617-0.021,0.693,0.693,0,0,1-.018.8l-2.539,3.291A0.37,0.37,0,0,1,25.707,935.838Zm-1.85-3.372,1.714,2.671h0.857l1.714-2.671H23.857Z" transform="translate(-18 -883)"/>
</svg>
